<?xml version="1.0" encoding="UTF-8" standalone="no"?>
<svg viewBox="0 0 50 50"
 xmlns="http://www.w3.org/2000/svg" xmlns:xlink="http://www.w3.org/1999/xlink" version="1.2" baseProfile="tiny">
<title>Qt SVG Document</title>
<desc>Generated with Qt</desc>
<defs>
</defs>
<g fill="none" stroke="black" stroke-width="1" fill-rule="evenodd" stroke-linecap="square" stroke-linejoin="bevel" >

<g fill="#000000" fill-opacity="1" stroke="none" transform="matrix(4.72443,0,0,6.29921,-126.252,-889.197)"
font-family="Noto Sans" font-size="10" font-weight="400" font-style="normal" 
opacity="0" >
<path vector-effect="none" fill-rule="evenodd" d="M26.7231,141.16 C26.7231,141.16 26.7231,141.16 26.7231,141.16 L37.3064,141.16 C37.3064,141.16 37.3064,141.16 37.3064,141.16 L37.3064,149.097 C37.3064,149.097 37.3064,149.097 37.3064,149.097 L26.7231,149.097 C26.7231,149.097 26.7231,149.097 26.7231,149.097 L26.7231,141.16"/>
</g>

<g fill="#000000" fill-opacity="1" stroke="none" transform="matrix(4.72443,0,0,6.29921,-126.252,-889.197)"
font-family="Noto Sans" font-size="10" font-weight="400" font-style="normal" 
opacity="0.75" >
<path vector-effect="none" fill-rule="nonzero" d="M30.6919,143.81 L30.6919,146.456 L33.3377,146.456 L33.3377,143.81 L30.6919,143.81 M30.9564,144.075 L33.0731,144.075 L33.0731,146.191 L30.9564,146.191 L30.9564,144.075"/>
</g>

<g fill="none" stroke="#000000" stroke-opacity="1" stroke-width="1" stroke-linecap="square" stroke-linejoin="bevel" transform="matrix(1,0,0,1,0,0)"
font-family="Noto Sans" font-size="10" font-weight="400" font-style="normal" 
>
</g>
</g>
</svg>
