<?xml version="1.0" encoding="UTF-8" standalone="no"?>
<svg viewBox="0 0 50 50"
 xmlns="http://www.w3.org/2000/svg" xmlns:xlink="http://www.w3.org/1999/xlink" version="1.2" baseProfile="tiny">
<title>Qt SVG Document</title>
<desc>Generated with Qt</desc>
<defs>
</defs>
<g fill="none" stroke="black" stroke-width="1" fill-rule="evenodd" stroke-linecap="square" stroke-linejoin="bevel" >

<g fill="#000000" fill-opacity="1" stroke="none" transform="matrix(4.72443,0,0,6.29921,-128.751,-889.197)"
font-family="Noto Sans" font-size="10" font-weight="400" font-style="normal" 
opacity="0" >
<path vector-effect="none" fill-rule="evenodd" d="M27.2522,141.16 C27.2522,141.16 27.2522,141.16 27.2522,141.16 L37.8355,141.16 C37.8355,141.16 37.8355,141.16 37.8355,141.16 L37.8355,149.097 C37.8355,149.097 37.8355,149.097 37.8355,149.097 L27.2522,149.097 C27.2522,149.097 27.2522,149.097 27.2522,149.097 L27.2522,141.16"/>
</g>

<g fill="#000000" fill-opacity="1" stroke="none" transform="matrix(4.72443,0,0,6.29921,-128.751,-889.197)"
font-family="Noto Sans" font-size="10" font-weight="400" font-style="normal" 
opacity="0.35" >
<path vector-effect="none" fill-rule="nonzero" d="M31.2209,143.81 L31.2209,146.456 L33.8667,146.456 L33.8667,143.81 L31.2209,143.81 M31.4855,144.075 L33.6022,144.075 L33.6022,146.191 L31.4855,146.191 L31.4855,144.075"/>
</g>

<g fill="none" stroke="#000000" stroke-opacity="1" stroke-width="1" stroke-linecap="square" stroke-linejoin="bevel" transform="matrix(1,0,0,1,0,0)"
font-family="Noto Sans" font-size="10" font-weight="400" font-style="normal" 
>
</g>
</g>
</svg>
