<?xml version="1.0" encoding="UTF-8" standalone="no"?>
<svg viewBox="0 0 50 50"
 xmlns="http://www.w3.org/2000/svg" xmlns:xlink="http://www.w3.org/1999/xlink" version="1.2" baseProfile="tiny">
<title>Qt SVG Document</title>
<desc>Generated with Qt</desc>
<defs>
</defs>
<g fill="none" stroke="black" stroke-width="1" fill-rule="evenodd" stroke-linecap="square" stroke-linejoin="bevel" >

<g fill="#000000" fill-opacity="1" stroke="none" transform="matrix(4.72443,0,0,6.29921,-49.9992,-889.197)"
font-family="Noto Sans" font-size="10" font-weight="400" font-style="normal" 
opacity="0.25" >
<path vector-effect="none" fill-rule="evenodd" d="M10.5831,141.16 C10.5831,141.16 10.5831,141.16 10.5831,141.16 L21.1664,141.16 C21.1664,141.16 21.1664,141.16 21.1664,141.16 L21.1664,149.097 C21.1664,149.097 21.1664,149.097 21.1664,149.097 L10.5831,149.097 C10.5831,149.097 10.5831,149.097 10.5831,149.097 L10.5831,141.16"/>
</g>

<g fill="#000000" fill-opacity="1" stroke="none" transform="matrix(4.72443,0,0,6.29921,-49.9992,-889.197)"
font-family="Noto Sans" font-size="10" font-weight="400" font-style="normal" 
>
<path vector-effect="none" fill-rule="evenodd" d="M14.5519,145.13 C14.5519,145.13 14.5519,145.13 14.5519,145.13 L17.1977,145.13 C17.1977,145.13 17.1977,145.13 17.1977,145.13 L17.1977,145.395 C17.1977,145.395 17.1977,145.395 17.1977,145.395 L14.5519,145.395 C14.5519,145.395 14.5519,145.395 14.5519,145.395 L14.5519,145.13"/>
</g>

<g fill="none" stroke="#000000" stroke-opacity="1" stroke-width="1" stroke-linecap="square" stroke-linejoin="bevel" transform="matrix(1,0,0,1,0,0)"
font-family="Noto Sans" font-size="10" font-weight="400" font-style="normal" 
>
</g>
</g>
</svg>
